# xmcd
#
# Track frame offsets:
#	150
#	27170
#	58624
#	82816
#
# Disc length: 1348 seconds
#
# Revision: 3
# Processed by: cddbd v1.5.2PL0 Copyright (c) Steve Scherf et al.
# Submitted via: audiograbber 1.82.02
#
DISCID=23054204
DTITLE=Various Artist - Simply Good Music Volume 2 [SAMPLER]
DYEAR=2005
DGENRE=Acid Jazz
TTITLE0=Bebel Gilberto - Aganju (Latin Project Remix)
TTITLE1=RSL - The Mast (Love Will Be Strong)
TTITLE2=Jiva vs. Seek - Ever After
TTITLE3=Tiombe Lockhart - Mr. Johnnie Walker
EXTD=Sampler CD
EXTT0=
EXTT1=
EXTT2=
EXTT3=
PLAYORDER=
